/* XPM */
static char *result[] = {
/* columns rows colors chars-per-pixel */
"37 37 7 1 ",
"  c #17111A",
". c #B05731",
"X c #9E6138",
"o c #F2A633",
"O c #FFE433",
"+ c #FFFAD6",
"@ c None",
/* pixels */
"@@@@@@@@@@@@@@@@@@@@@@@@@@@@@@@@@@@@@",
"@@@@@@@@@@@@@@@@@@@@@@@@@@@@@@@@@@@@@",
"@@@@@@@@@@@@@@@@@@@@@@@@@@@@@@@@@@@@@",
"@@@@@@@@@@@@@@@@@@@@@@@@@@@@@@@@@@@@@",
"@@@@@@@@@@@@@@@@@@@@@@@@@@@@@@@@@@@@@",
"@@@@@@@@@@@@@@@@@@@@@@@@@@@@@@@@@@@@@",
"@@@@@@@@@@@@@@@@@@@@@@@@@@@@@@@@@@@@@",
"@@@@@@@@@@@@@@@@@@@    @@@@@@@@@@@@@@",
"@@@@@@@@@@@@@@@@@@ OOOo   @@@@@@@@@@@",
"@@@@@@@@@@@@@@@@@ OOOOOOOo   @@@@@@@@",
"@@@@@@@@@@@@@@@@ OOOOOOOOOOOo @@@@@@@",
"@@@@@@@@@@@@@@@ OOOOOOOOOOOO. @@@@@@@",
"@@@@@@@@@@@@@@ OOOOOOOOOOOO.XX @@@@@@",
"@@@@@@@@@@@@@ OOOOOOOOOOOO.XXX @@@@@@",
"@@@@@@@@@@@@ OOOOOOOOOOOO.XXXXX @@@@@",
"@@@@@@@@@@@ OOOOOOOOOOOO.XXXXXX @@@@@",
"@@@@@@@@@@ OOOOOOOOOOOO.XXXXXX @@@@@@",
"@@@@@@@@@ OOOOOOOOOOOO.XXXXXX @@@@@@@",
"@@@@@@@@ OOOOOOOOOOOO.XXXXXX @@@@@@@@",
"@@@@@@@ +++OOOOOOOOO.XXXXXX @@@@@@@@@",
"@@@@@@@ ooo+++OOOOO.XXXXXX @@@@@@@@@@",
"@@@@@@ ooooooo++++.XXXXXX @@@@@@@@@@@",
"@@@@@@ oooooooooo.XXXXXX @@@@@@@@@@@@",
"@@@@@@ oooooooooo.XXXXX @@@@@@@@@@@@@",
"@@@@@@ oooooooooo.XXXX @@@@@@@@@@@@@@",
"@@@@@@@   oooooooo.XX @@@@@@@@@@@@@@@",
"@@@@@@@@@@   ooooo.X @@@@@@@@@@@@@@@@",
"@@@@@@@@@@@@@   oo. @@@@@@@@@@@@@@@@@",
"@@@@@@@@@@@@@@@@   @@@@@@@@@@@@@@@@@@",
"@@@@@@@@@@@@@@@@@@@@@@@@@@@@@@@@@@@@@",
"@@@@@@@@@@@@@@@@@@@@@@@@@@@@@@@@@@@@@",
"@@@@@@@@@@@@@@@@@@@@@@@@@@@@@@@@@@@@@",
"@@@@@@@@@@@@@@@@@@@@@@@@@@@@@@@@@@@@@",
"@@@@@@@@@@@@@@@@@@@@@@@@@@@@@@@@@@@@@",
"@@@@@@@@@@@@@@@@@@@@@@@@@@@@@@@@@@@@@",
"@@@@@@@@@@@@@@@@@@@@@@@@@@@@@@@@@@@@@",
"@@@@@@@@@@@@@@@@@@@@@@@@@@@@@@@@@@@@@"
};
