/* XPM */
static char *players_blue_x1_resized[] = {
/* columns rows colors chars-per-pixel */
"49 38 149 2 ",
"   c None",
".  c #0A0E1F",
"X  c #131523",
"o  c #151829",
"O  c #1A1C2B",
"+  c #1B1F32",
"@  c #231E2A",
"#  c #1D223B",
"$  c #1E2133",
"%  c #27262F",
"&  c #21263E",
"*  c #24293D",
"=  c #2B2D3C",
"-  c #272733",
";  c #302D32",
":  c #593432",
">  c #73553B",
",  c #1A244B",
"<  c #16224F",
"1  c #1E2A55",
"2  c #242B43",
"3  c #202748",
"4  c #272D47",
"5  c #2F364D",
"6  c #323A4F",
"7  c #222C53",
"8  c #25315C",
"9  c #333B56",
"0  c #323B5A",
"q  c #283668",
"w  c #27366C",
"e  c #343F62",
"r  c #283C7E",
"t  c #344564",
"y  c #35426D",
"u  c #334378",
"i  c #2E5079",
"p  c #4A4B56",
"a  c #53535B",
"s  c #404A64",
"d  c #46506A",
"f  c #4D5163",
"g  c #5C5C66",
"h  c #5D5E69",
"j  c #646671",
"k  c #B97451",
"l  c #C95554",
"z  c #C37151",
"x  c #E6795C",
"c  c #A58757",
"v  c #B3925C",
"b  c #EA855D",
"n  c #E29463",
"m  c #F99C62",
"M  c #F39A60",
"N  c #C5A364",
"B  c #D8AE67",
"V  c #DEB469",
"C  c #FAAB63",
"Z  c #F3A463",
"A  c #FFBD6F",
"S  c #F7BD6F",
"D  c #E1A776",
"F  c #F9B677",
"G  c #FFC572",
"H  c #FFD779",
"J  c #2A3F85",
"K  c #2C4085",
"L  c #29408B",
"P  c #2F4692",
"I  c #374E95",
"U  c #384F98",
"Y  c #314998",
"T  c #39509A",
"R  c #315E90",
"E  c #33608C",
"W  c #3F728C",
"Q  c #344EA4",
"!  c #3551AC",
"~  c #3953A5",
"^  c #3958BD",
"/  c #3655B8",
"(  c #3B7FBC",
")  c #7B7C87",
"_  c #5164A4",
"`  c #596EB4",
"'  c #3256C7",
"]  c #3B5CC4",
"[  c #3659C9",
"{  c #3B5DCA",
"}  c #3C5FD0",
"|  c #3D60D2",
" . c #526FCC",
".. c #5472CF",
"X. c #7C85A5",
"o. c #3E8ED2",
"O. c #3D96E2",
"+. c #439EDD",
"@. c #7189D6",
"#. c #40AAFE",
"$. c #48B3FA",
"%. c #60C8DE",
"&. c #6AE6FA",
"*. c #8E8F97",
"=. c #8F9097",
"-. c #8F9098",
";. c #919195",
":. c #9C9DA4",
">. c #9D9EA9",
",. c #939BB8",
"<. c #A4A4AB",
"1. c #A6A1A2",
"2. c #A0A5B3",
"3. c #ACADB2",
"4. c #B4B4B6",
"5. c #B6B7BC",
"6. c #C4BEB3",
"7. c #F8DFB8",
"8. c #FAE5B9",
"9. c #899EDE",
"0. c #8EA2DF",
"q. c #A5BDC5",
"w. c #BABBC3",
"e. c #ABB8DF",
"r. c #9AACE3",
"t. c #ACBAE4",
"y. c #BFC0C4",
"u. c #BDC7E7",
"i. c #B5E7EA",
"p. c #BBF6F7",
"a. c #C0C0C4",
"s. c #C5C5C8",
"d. c #C7CAD6",
"f. c #D7D7D9",
"g. c #DCDAD6",
"h. c #FAE7C2",
"j. c #C1CAE8",
"k. c #D5DBED",
"l. c #D0D8F3",
"z. c #DCE3F9",
"x. c #E7E8EA",
"c. c #E9E7E2",
"v. c #F5F3ED",
"b. c #EFF0F1",
"n. c #F4F4F4",
"m. c #F8F7F6",
"M. c #F8F8F7",
"N. c #F3F6FC",
"B. c #FCFCFB",
/* pixels */
"                                                                                                  ",
"                                                                                                  ",
"                                                                                                  ",
"                                                                                                  ",
"                                                                                                  ",
"                                                N.N.N.N.                                          ",
"                                            v.h.8.8.8.8.h.B.                                      ",
"                            j.t.t.t.t.e.2.6.7.F C Z n Z D 1.>.4.                                  ",
"                          u.@.' [ [ [ / < > C m M b l x k @ . p 3.f.                              ",
"                        k...' { { [ } ^ 7 : z S H G m A N - o o = w.B.                            ",
"                        l...' { { { { ] 7 o ; v B B B V c % o o = s.B.                            ",
"                      c.d. .[ { { { ] ! 7 O & & & & & & & # + o = s.B.                            ",
"                    M.;.4 ! ] ^ ^ { P # O q ^ ^ ^ ^ ^ ^ ^ / 8 X = 5.b.x.x.                        ",
"                    M.-.O # # # + # 3 5 9 0 0 t e e e e e e 9 6 9 s d d d 2.M.                    ",
"                    M.-.O O O O O 4 9 9 0 9 9 9 9 9 9 9 9 9 9 9 e ( O.+.%.i.n.                    ",
"                    M.-.o o O O O O * 9 0 0 9 9 9 9 9 9 9 9 9 9 t o.#.$.&.p.m.                    ",
"                      d.:.= X 3 Y Y Q Q y 9 0 9 9 9 9 9 9 0 0 9 t +.#.$.&.p.m.                    ",
"                          3.a , ^  .{ ' y 6 9 9 9 9 9 9 6 * * - 2 i R E W q.m.                    ",
"                            4.X.] [ } { ~ T T U U I I T u $ O o - ) <.<.>.w.                      ",
"                              z.r._ r J K K K K ! | | Q w O o o 4 s.B.B.B.                        ",
"                              g.<.p X . X X X X 1 L L , X X o X = w.B.                            ",
"                            l.,.- . = g h h h h g g g h h h e 0 j s.                              ",
"                          m.r.` f p ) b.B.B.B.M.M.B.M.M.B.n.9.9.m.                                ",
"                              m.n.n.n.                      n.n.                                  ",
"                                                                                                  ",
"                                                                                                  ",
"                                                                                                  ",
"                                                                                                  ",
"                                        O O O O O O                                               ",
"                                          O O O O                                                 ",
"                                                                                                  ",
"                                                                                                  ",
"                                                                                                  ",
"                                                                                                  ",
"                                                                                                  ",
"                                                                                                  ",
"                                                                                                  ",
"                                                                                                  "
};
