/* XPM */
static char *players_blue_x2_resized[] = {
/* columns rows colors chars-per-pixel */
"49 38 146 2 ",
"   c None",
".  c #141625",
"X  c #1B1A26",
"o  c #17192A",
"O  c #1A1C2B",
"+  c #14172A",
"@  c #1B1F33",
"#  c #1E202F",
"$  c #1E2132",
"%  c #1C213C",
"&  c #212436",
"*  c #262838",
"=  c #2D2E3C",
"-  c #22263A",
";  c #32333F",
":  c #1F2643",
">  c #262B43",
",  c #292E44",
"<  c #2F3141",
"1  c #2C334B",
"2  c #26314A",
"3  c #313340",
"4  c #363846",
"5  c #3B3D4A",
"6  c #232F5A",
"7  c #2A3353",
"8  c #25315E",
"9  c #333B56",
"0  c #343D58",
"q  c #27366D",
"w  c #273B7D",
"e  c #283C7F",
"r  c #3E404D",
"t  c #344066",
"y  c #314A6F",
"u  c #38446B",
"i  c #344E73",
"p  c #36477D",
"a  c #344476",
"s  c #375273",
"d  c #474956",
"f  c #41465E",
"g  c #4B4D5B",
"h  c #665744",
"j  c #575862",
"k  c #585A65",
"l  c #585B68",
"z  c #405E75",
"x  c #616067",
"c  c #63697D",
"v  c #924F43",
"b  c #907751",
"n  c #A2714F",
"m  c #BA7E62",
"M  c #D05B54",
"N  c #C7675C",
"B  c #AB8D5B",
"V  c #CE8C5B",
"C  c #DB905B",
"Z  c #E8885F",
"A  c #E2815D",
"S  c #F08C5D",
"D  c #F4925D",
"F  c #F79C63",
"G  c #D8AF68",
"H  c #DCB26A",
"J  c #F7A566",
"K  c #FAA766",
"L  c #FEBC6E",
"P  c #FFCD75",
"I  c #FFD377",
"U  c #2A3E82",
"Y  c #2D4185",
"T  c #2E448F",
"R  c #375F8B",
"E  c #324B9D",
"W  c #38618F",
"Q  c #386290",
"!  c #3952A3",
"~  c #3753AC",
"^  c #3552B0",
"/  c #3556BF",
"(  c #3A5ABE",
")  c #366CA2",
"_  c #3E78A2",
"`  c #717587",
"'  c #727688",
"]  c #6877A7",
"[  c #3A5BC3",
"{  c #375AC8",
"}  c #3B5DCA",
"|  c #4D6BCD",
" . c #506ECE",
".. c #536EC4",
"X. c #7F8089",
"o. c #5192A4",
"O. c #7989BC",
"+. c #3FA0F0",
"@. c #6C81C4",
"#. c #778BCB",
"$. c #6B84D2",
"%. c #6F88D6",
"&. c #7189D6",
"*. c #738BD9",
"=. c #40A4F4",
"-. c #40A6F9",
";. c #41A8FA",
":. c #51BCF3",
">. c #52C1F9",
",. c #73E9F1",
"<. c #75F0F7",
"1. c #77F3FA",
"2. c #80818A",
"3. c #878890",
"4. c #8B8C93",
"5. c #95969C",
"6. c #9A9CA5",
"7. c #B0B0B2",
"8. c #B3B5BE",
"9. c #FABE83",
"0. c #FDD286",
"q. c #E5CA96",
"w. c #FADEAC",
"e. c #A0A8C5",
"r. c #A3B0DC",
"t. c #9EADE0",
"y. c #B1BDE4",
"u. c #CCCCCF",
"i. c #C3C3C7",
"p. c #C9CDDB",
"a. c #CFD0D5",
"s. c #CED4D9",
"d. c #D2D2D4",
"f. c #DDDDDD",
"g. c #F8E5C4",
"h. c #D2E0E3",
"j. c #D9F3F4",
"k. c #E7E7E8",
"l. c #EAEBED",
"z. c #E6E6E5",
"x. c #F5F1EB",
"c. c #E9EBF1",
"v. c #F4F4F4",
"b. c #F8F7F6",
"n. c #FAF9F7",
"m. c #FBFBFA",
/* pixels */
"                                                                                                  ",
"                                                                                                  ",
"                                                                                                  ",
"                                                                                                  ",
"                                                                                                  ",
"                                                                                                  ",
"                                                                                                  ",
"                                                                                                  ",
"                                                                                                  ",
"                                                                                                  ",
"                                                                                                  ",
"                                        x.x.x.x.x.x.                                              ",
"                      v.v.v.v.v.v.v.b.g.0.0.0.0.0.w.v.v.v.                                        ",
"                  m.y.&.&.&.&.*.] x q.9.D D A N Z m l k 3.m.                                      ",
"                c.t.$.{ { { { } Y X C K J K Z M F n + . r 3.d.                                    ",
"                c. .{ } } } } } Y O v V I I L F P B o O O O u.m.                                  ",
"                l. .} } } } } } Y O + h H G G G H b o O O $ u.b.                                  ",
"                l. .} [ } } } { Y O @ & * * * * * & $ o O $ u.b.                                  ",
"                c. .} } } } [ 6 % @ E ^ ^ ^ ^ ^ ^ ^ ~ > o O u.b.v.v.v.v.                          ",
"                l.u 8 8 8 8 8 , 1 1 a p p p p p p p p 7 1 2 ` ' ' ' ' ' d.                        ",
"                k.3 X O O O O 9 9 9 9 9 9 9 9 9 9 9 9 9 0 0 7 y ) ) _ o.h.b.                      ",
"                k.3 o O O O O , 1 9 9 0 9 9 9 0 9 9 9 9 0 9 9 Q ;.-.>.1.j.b.                      ",
"                l.g = o O @ > : 7 t 0 0 9 0 9 9 9 9 9 9 9 9 9 W =.=.:.<.j.v.                      ",
"                  c.4.O o q [ [ [ ( t 9 9 9 9 0 0 9 9 9 9 9 9 R =.+.:.,.j.b.                      ",
"                    d.i.; q } } } } 0 9 9 9 9 0 9 9 9 - $ $ $ 2 s s s z d.b.                      ",
"                        7.O.} } } } ^ ! ! ! ! ! ! ! ! % . o . g i.e.8.8.                          ",
"                        m.e.e Y U e w U U / { { T U Y ` 2.2.X.6.m.m.m.m.                          ",
"                        m.5.. . ; k j j k @.%.$., X O d.m.n.m.                                    ",
"                        m.6.% < 2.n.v.v.v.v.v.l.r > 5 d.m.                                        ",
"                        n.r.[ p.f.            l. .#.z.                                            ",
"                              d 4 o O O O o ; d                                                   ",
"                                o O O O O O o                                                     ",
"                                  O O O O O                                                       ",
"                                                                                                  ",
"                                                                                                  ",
"                                                                                                  ",
"                                                                                                  ",
"                                                                                                  "
};
