/* XPM */
static char *result[] = {
/* columns rows colors chars-per-pixel */
"33 32 20 1 ",
"  c #17111A",
". c #17111B",
"X c #372538",
"o c #7A213A",
"O c #243B61",
"+ c #575471",
"@ c #74707D",
"# c #AD313D",
"$ c #E14141",
"% c #E45454",
"& c #2D65A8",
"* c #667296",
"= c #7884AB",
"- c #3898FF",
"; c #97A3AB",
": c #95A0B7",
"> c #B2BCC2",
", c #D8DDE0",
"< c white",
"1 c None",
/* pixels */
"111111111111111111111111111111111",
"111111111111111111111111111111111",
"111111111111111111111111111111111",
"111111111111111111111111111111111",
"11111      1111111111      111111",
"111  X<<<X%   1111   <<<<<X  1111",
"111 -X<=+X%%X, 11 <<<<=@=<X- 1111",
"111 -X<<<X%%X,<  <<+=><<<<X- .111",
"111 -X<@=X%$X*<>;<+<<<==><X- .111",
"111 -X<<<X%$X,<>;<<>+=<<<<X& .111",
"111 -X<=>X$$X;<>;<@<<<>=+<X- .111",
"111 -X<<<X$$X,<>;<<=+><<<<X& .111",
"111 -X<@=>X$$X,>;<=<<<=+@<X& .111",
"111 -X<<<<X$$X,>;<<@=><<<<X& .111",
"111 -X<,,<X$$X,>;<+<<<<,,<X& .111",
"111 -X<==,X$#X,>;<<,,,,==<X& .111",
"111 &X>>>=X$#X,>;<,====>>>X& .111",
"111 &OXX>>X$#X,>;,+>>>>>XXO& .111",
"1111 &&OXXX##X++++:::XXXO&& ..111",
"1111.  &&OX#oX::;::XXOO&&  ...111",
"11111..  &X#oXXXXXXOO&&  ....1111",
"111111... X#oXOOOOO&&  .....11111",
"11111111.. ooX&&&&&  .....1111111",
"1111111111 ooX     .....111111111",
"1111111111 oo ........11111111111",
"1111111111 oo ......1111111111111",
"1111111111    .111111111111111111",
"11111111111....111111111111111111",
"11111111111....111111111111111111",
"111111111111111111111111111111111",
"111111111111111111111111111111111",
"111111111111111111111111111111111"
};
