/* XPM */
static char *result[] = {
/* columns rows colors chars-per-pixel */
"31 35 11 1 ",
"  c #17111A",
". c #17111B",
"X c #372538",
"o c #482439",
"O c #5B3139",
"+ c #904C42",
"@ c #CF7957",
"# c #F19469",
"$ c #B2BCC2",
"% c white",
"& c None",
/* pixels */
"&&&&&&&&&&&&.......&&&&&&&&&&&&",
"&&&&&&&&&&&&&&&&&&&&&&&&&&&&&&&",
"&&&&&&&&&&&&&&&&&&&&&&&&&&&&&&&",
"&&&&&&&&&&&&&&&&&&&&&&&&&&&&&&&",
"&&&&&&&&&&&&&&&&&&&&&&&&&&&&&&&",
"&&&&&&        &&&&&&&&&&&&&&&&&",
"&&&&& +O##O###        &&&&&&&&&",
"&&&& ++O##O@@@######## &&&&&&&&",
"&&& ++oO#@O@@@@@@@@@@@ &&&&&&&&",
"&& ++o+O@@O@@@@@@@@@@@@ &&&&&&&",
"&& +o++O@@O@@XXX@@@@@@@ &&&&&&&",
"&&& ++++O@@O@@@@XXXXXX@ .&&&&&&",
"&&& +X++O@@O@@@@@@@@@@@ .&&&&&&",
"&&& ++++O@@O@@@@@@@@@@@+ &&&&&&",
"&&& ++X+O@@O@@XX@@@@@@@+ &&&&&&",
"&&&& +X+O@@O@@@@XXXXXX@+ .&&&&&",
"&&&& +X++O@@O@@@@@@@@@@@+ &&&&&",
"&&&& ++X+O@@O@@@@@@@@@@@+ &&&&&",
"&&&&& +X+O@@O@@@@@@@@@@@+ .&&&&",
"&&&&& +X++O@@O@@@@@@@@@@@+ &&&&",
"&&&&& ++++O@@O@@@@@@@@@@@+ &&&&",
"&&&&&& +X+O@@O@@@@@@@@@@@+ .&&&",
"&&&&&& +++O@@O@@@@@@@@@@@+ .&&&",
"&&&&&& ++o+O++O++@@@@@@@@++ &&&",
"&&&&&& +o++OOOOOO++++++++++ &&&",
"&&&&&&& ++O$%%%%%OOOOOOOOO+ .&&",
"&&&&&&& +O$$$$%%%%%%%%%%$$ ..&&",
"&&&&&&&& +OOOO$$$$$$$$$$$ ...&&",
"&&&&&&&& +++++OOOOOOOOOOO ..&&&",
"&&&&&&&&&     +++++++++++ .&&&&",
"&&&&&&&&&.....           ..&&&&",
"&&&&&&&&&&.................&&&&",
"&&&&&&&&&&&&&&&...........&&&&&",
"&&&&&&&&&&&&&&&&&&&&&&&&&&&&&&&",
"&&&&&&&&&&&&&&&&&&&&&&&&&&&&&&&"
};
